<?xml version="1.0" encoding="utf-8"?>
<!-- Generator: Adobe Illustrator 23.1.1, SVG Export Plug-In . SVG Version: 6.00 Build 0)  -->
<svg version="1.1"
	 id="Layer_1" shape-rendering="geometricPrecision" text-rendering="geometricPrecision" image-rendering="optimizeQuality"
	 xmlns="http://www.w3.org/2000/svg" xmlns:xlink="http://www.w3.org/1999/xlink" x="0px" y="0px" viewBox="0 0 3312 3312"
	 style="enable-background:new 0 0 3312 3312;" xml:space="preserve">
<style type="text/css">
	.st0{fill:#9200E9;}
</style>
<path class="st0" d="M1656,0c457,0,871,185,1171,485s485,714,485,1171s-185,871-485,1171s-714,485-1171,485s-871-185-1171-485
	S0,2113,0,1656S185,785,485,485S1199,0,1656,0z M931,1811c-35-32-38-87-6-122s87-38,122-6l362,328l850-890c33-35,88-36,122-3
	c35,33,36,88,3,122l-908,951c-32,34-86,36-121,5l-425-385H931z M2704,608c-268-268-639-434-1048-434S876,340,608,608
	s-434,639-434,1048s166,780,434,1048s639,434,1048,434s780-166,1048-434s434-639,434-1048S2972,876,2704,608z"/>
</svg>
